<svg xmlns="http://www.w3.org/2000/svg" viewBox="0 0 716.91 327.61"><defs><style>.cls-1{fill:#f69372;}</style></defs><title>logo landscape</title><g id="Layer_2" data-name="Layer 2"><g id="final_logo" data-name="final logo"><path class="cls-1" d="M304.09,91.62l-130.44-87a27.79,27.79,0,0,0-30.8,0l-130.43,87c-22.86,15.24-12.07,50.87,15.4,50.87H33.3a13.88,13.88,0,0,1,13.88,13.88V299.84A27.77,27.77,0,0,0,75,327.61h166.6a27.77,27.77,0,0,0,27.77-27.77V156.37a13.88,13.88,0,0,1,13.89-13.88h5.47C316.16,142.49,326.94,106.86,304.09,91.62Zm-62.54,199a9.25,9.25,0,0,1-9.25,9.26H84.2A9.25,9.25,0,0,1,75,290.58V170.26a27.76,27.76,0,0,1,27.76-27.77H213.79a27.76,27.76,0,0,1,27.76,27.77Z"/><path class="cls-1" d="M379,212.29a28.39,28.39,0,0,0,15.29.21,9.91,9.91,0,0,0,5.59-3.44l-1.67-31.63a48.24,48.24,0,0,0,17.06-6.31,38.39,38.39,0,0,0,10.55-9.61,27.57,27.57,0,0,0,4.9-10.7,21.73,21.73,0,0,0,.05-9.6,14.4,14.4,0,0,0-4.07-6.58,22.89,22.89,0,0,0-7-4.38,41.46,41.46,0,0,0-9-2.45,59,59,0,0,0-10-.73,69.06,69.06,0,0,0-9.86.78,50.14,50.14,0,0,0-8.77,2.09,26.94,26.94,0,0,0-6.63,3.18,8.17,8.17,0,0,0-3.39,4l2.82,72.34Q375.69,211.25,379,212.29Zm25-67.63a22.16,22.16,0,0,1,5.9.15,3.79,3.79,0,0,1,3.39,2.66,5.28,5.28,0,0,1-2,4.28,15.8,15.8,0,0,1-4.8,2.66,27.73,27.73,0,0,1-5.64,1.41,33.07,33.07,0,0,1-4.54.42l-.31-10.12A65.88,65.88,0,0,1,404,144.66Z"/><path class="cls-1" d="M482.23,149.87a11.26,11.26,0,0,0-3.7-1.77,22,22,0,0,0-4.8-.78,31.89,31.89,0,0,0-4.91.05,14.35,14.35,0,0,0-4,.89,3.47,3.47,0,0,0-2.14,1.72v3.55a17.27,17.27,0,0,0-10.85.36,24.9,24.9,0,0,0-9.61,6.47,39.37,39.37,0,0,0-7.2,11.17,45.72,45.72,0,0,0-3.65,14.25,25,25,0,0,0,.47,8.09,26.68,26.68,0,0,0,2.76,7.36,20,20,0,0,0,4.75,5.69A14.82,14.82,0,0,0,445.8,210a15.38,15.38,0,0,0,7.78-.58,27,27,0,0,0,8.87-5.16l.21,5.84c.07.63.63,1.17,1.67,1.62a15,15,0,0,0,3.76,1,26.8,26.8,0,0,0,4.85.21,20.35,20.35,0,0,0,5-.78,13.81,13.81,0,0,0,4-1.88,4.64,4.64,0,0,0,2-3.18V152.59A4.07,4.07,0,0,0,482.23,149.87Zm-20.3,41.24a8,8,0,0,1-4.49,1.61,5,5,0,0,1-3.29-1.2,7.39,7.39,0,0,1-2-3.23,13.42,13.42,0,0,1-.73-4.49,15.82,15.82,0,0,1,1.25-6.53,14,14,0,0,1,3.08-4.48,9.89,9.89,0,0,1,3.81-2.35,4.83,4.83,0,0,1,3.44,0Z"/><path class="cls-1" d="M553.39,211.15a7.18,7.18,0,0,0,3.76-2.72l17.22-52.81a3.44,3.44,0,0,0-1-2.93,9.93,9.93,0,0,0-3.24-2.14,21,21,0,0,0-4.48-1.35,28.34,28.34,0,0,0-4.65-.53,14.15,14.15,0,0,0-3.81.37c-1.08.28-1.72.7-1.93,1.25l-9,27.35-4.8-24.22a10.6,10.6,0,0,0-7.51-3.13,13.87,13.87,0,0,0-8.77,3.13l-6.47,25.16-5.85-27.87a9.16,9.16,0,0,0-5.17-1.83,16.29,16.29,0,0,0-5.89.79,18.88,18.88,0,0,0-5.33,2.66,10.62,10.62,0,0,0-3.44,3.81L503.6,207.6a4.94,4.94,0,0,0,3.13,2.35,19.56,19.56,0,0,0,5.59,1,21.37,21.37,0,0,0,5.95-.52,7.15,7.15,0,0,0,4.22-2.45l9.5-25.27,6.58,25.79a6.21,6.21,0,0,0,3.65,2.76,16.25,16.25,0,0,0,5.59.84A17.57,17.57,0,0,0,553.39,211.15Z"/><path class="cls-1" d="M430.77,255.41a14.45,14.45,0,0,0-4.07-6.57,22.71,22.71,0,0,0-7-4.38,41.52,41.52,0,0,0-9-2.45,58,58,0,0,0-10-.73,69.17,69.17,0,0,0-9.86.78,50.26,50.26,0,0,0-8.76,2.08,27.4,27.4,0,0,0-6.62,3.19,8.11,8.11,0,0,0-3.39,4l2.81,72.3q.84,1.77,4.18,2.81a26.88,26.88,0,0,0,7.4,1.15,27.2,27.2,0,0,0,7.88-.94,9.85,9.85,0,0,0,5.58-3.44l-1.67-31.61a48.24,48.24,0,0,0,17.06-6.31,38.56,38.56,0,0,0,10.53-9.6A27.62,27.62,0,0,0,430.72,265,21.87,21.87,0,0,0,430.77,255.41ZM411.21,266a16.13,16.13,0,0,1-4.8,2.66,29.19,29.19,0,0,1-5.63,1.41,34.71,34.71,0,0,1-4.54.41l-.31-10.12a69.81,69.81,0,0,1,8-1.46,22.06,22.06,0,0,1,5.89.16,3.78,3.78,0,0,1,3.39,2.66A5.3,5.3,0,0,1,411.21,266Z"/><path class="cls-1" d="M482.17,264.07a10.93,10.93,0,0,0-3.71-1.77,22.49,22.49,0,0,0-4.8-.79,33,33,0,0,0-4.9.06,14.57,14.57,0,0,0-4,.88,3.51,3.51,0,0,0-2.14,1.72v3.55a17.27,17.27,0,0,0-10.85.37,24.66,24.66,0,0,0-9.6,6.46,39.22,39.22,0,0,0-7.2,11.17A45.87,45.87,0,0,0,431.31,300a25.3,25.3,0,0,0,.47,8.09,26.2,26.2,0,0,0,2.77,7.35,19.84,19.84,0,0,0,4.74,5.69,14.77,14.77,0,0,0,6.47,3.08,15.57,15.57,0,0,0,7.77-.58,27.19,27.19,0,0,0,8.87-5.16l.21,5.84c.07.63.62,1.17,1.67,1.62a14.78,14.78,0,0,0,3.75,1,26.8,26.8,0,0,0,4.85.21,20.35,20.35,0,0,0,5-.78,13.88,13.88,0,0,0,4-1.88,4.64,4.64,0,0,0,2-3.18V266.78A4.1,4.1,0,0,0,482.17,264.07Zm-20.29,41.21a8,8,0,0,1-4.49,1.61,4.92,4.92,0,0,1-3.28-1.2,7.4,7.4,0,0,1-2-3.23,13.42,13.42,0,0,1-.73-4.49,15.8,15.8,0,0,1,1.25-6.52,14,14,0,0,1,3.08-4.48,10,10,0,0,1,3.81-2.35,4.83,4.83,0,0,1,3.44,0Z"/><path class="cls-1" d="M534.76,271.42a21.22,21.22,0,0,0-5.42-5.21,14.4,14.4,0,0,0-6.52-2.4,13.29,13.29,0,0,0-7,1.25,18.91,18.91,0,0,0-6.88,6l1-6.37c-.07-.69-.92-1.32-2.56-1.87a16.67,16.67,0,0,0-11.58.52,6.86,6.86,0,0,0-4,4.28l.21,55.29a4.43,4.43,0,0,0,3.49,3.07,17.77,17.77,0,0,0,6.16.52,21.3,21.3,0,0,0,6.1-1.35q2.82-1.09,3.55-2.66V294.22a12.38,12.38,0,0,1,2.6-6.11,8,8,0,0,1,4.23-2.86,4.85,4.85,0,0,1,4.22,1c1.32,1,2.23,2.87,2.71,5.58a7.16,7.16,0,0,0,3.45,1.77,9.56,9.56,0,0,0,4.54,0,10.22,10.22,0,0,0,4.32-2.3,8.87,8.87,0,0,0,2.72-4.85,24.06,24.06,0,0,0-1.57-7.87A28.78,28.78,0,0,0,534.76,271.42Z"/><path class="cls-1" d="M596.44,301.78a5.43,5.43,0,0,0-4.23-1.2,42.22,42.22,0,0,1-9.7,5.27,18.77,18.77,0,0,1-8,1.3,8.58,8.58,0,0,1-5.68-2.61,11.17,11.17,0,0,1-2.72-6.57,17,17,0,0,0,8.56,1.78,28.46,28.46,0,0,0,9.91-2,23.07,23.07,0,0,0,8.24-5.42,12.53,12.53,0,0,0,3.65-8.45,21.39,21.39,0,0,0-2-9.65,21.05,21.05,0,0,0-6.05-7.62,23.38,23.38,0,0,0-9.34-4.32,26.05,26.05,0,0,0-11.79.2,22.47,22.47,0,0,0-9.49,4.54,26.26,26.26,0,0,0-6,7.3,31.37,31.37,0,0,0-3.29,8.77,55.92,55.92,0,0,0-1.2,8.92,50.21,50.21,0,0,0,.16,7.77,35.41,35.41,0,0,0,.88,5.37,27.64,27.64,0,0,0,3.71,8.14,29.4,29.4,0,0,0,6.21,6.78,29,29,0,0,0,8.13,4.59,24.72,24.72,0,0,0,9.5,1.51,28.08,28.08,0,0,0,10.37-2.5,37.18,37.18,0,0,0,10.7-7.46,9.06,9.06,0,0,0,2.92-5.22,10.34,10.34,0,0,0-.52-5.27A9.12,9.12,0,0,0,596.44,301.78ZM571,279.09a9.58,9.58,0,0,1,3.8-.89,7.29,7.29,0,0,1,3.55.73,2.19,2.19,0,0,1,1.2,2.56,3,3,0,0,1-1.82,2,9,9,0,0,1-3.45,1,7.22,7.22,0,0,1-3.39-.47,2.6,2.6,0,0,1,.11-4.9Z"/><path class="cls-1" d="M662.39,289.21a65.08,65.08,0,0,0-2.3-10.59,31,31,0,0,0-3.91-8.34,13,13,0,0,0-6-4.91,14.65,14.65,0,0,0-8.5-.36q-4.9,1-11.47,5.42l.21-3a2.81,2.81,0,0,0-1.62-2.3,10.44,10.44,0,0,0-3.86-1.09,27.82,27.82,0,0,0-5.11-.06,27.33,27.33,0,0,0-5.22.89,16.19,16.19,0,0,0-4.22,1.77,4.16,4.16,0,0,0-2.09,2.46v52.57a5,5,0,0,0,2.09,2.61,11.42,11.42,0,0,0,3.65,1.57,20.26,20.26,0,0,0,4.43.57A19.39,19.39,0,0,0,623,326a15,15,0,0,0,4-1.41,6.24,6.24,0,0,0,2.61-2.4l-.31-33.27q5.84-3.76,8.92-2.51c2,.84,3.54,2.87,4.48,6.11a52.58,52.58,0,0,1,1.67,12.62q.25,7.77.37,17.05a4.64,4.64,0,0,0,2.92,2.93,14.57,14.57,0,0,0,5.37,1.14,19.74,19.74,0,0,0,6-.73,10,10,0,0,0,4.9-2.92V312.37q0-5.64-.36-11.53T662.39,289.21Z"/><path class="cls-1" d="M716.6,269a20.17,20.17,0,0,0-1.72-5.52,8.66,8.66,0,0,0-2.24-3.19l-9.81.32-.31-16.69a10,10,0,0,0-5.27-2.46,22.85,22.85,0,0,0-11.42,1.2,8.57,8.57,0,0,0-3.13,1.78l-.21,16.17-8.55.21a21.35,21.35,0,0,0-2.25,6.36,23.77,23.77,0,0,0-.36,5.94,14.5,14.5,0,0,0,1,4.65,4.52,4.52,0,0,0,2,2.45l8.66-.42v44c0,1.12.72,2,2.14,2.51a16.24,16.24,0,0,0,5.27.94,40.34,40.34,0,0,0,6.57-.37,27.26,27.26,0,0,0,6-1.41l-.11-46,11.48.1a6.66,6.66,0,0,0,2.45-4.59A20.58,20.58,0,0,0,716.6,269Z"/><path class="cls-1" d="M215.55,221.25a30.72,30.72,0,0,0-12.78-2.49c-2.87,0-5.61,1-8.41,1.47-3.69.66-7.33-.29-11-.9-11-1.83-24.87,1.37-31.67,11a23.87,23.87,0,0,0-3.55,8.33c-.66,2.82-.47,5.94-1.37,8.65-1.74,5.26-4.7,9.89-7,14.89-2,4.34-3.35,9.05-2.38,13.85a16,16,0,0,0,5.78,9.37c12,9.42,29-1.59,39.67-8.21,9.87-6.1,20.49-11.91,29.63-18.9,7.94-6.07,16-15,13-25.81A17.5,17.5,0,0,0,215.55,221.25Z"/><path class="cls-1" d="M194.43,207.72c4.48,3,9.56,4.38,14.23,1.35,6.32-4.1,5.61-14.63,5-21.1-.82-8.23-4.12-17.07-11.58-21.46-8.2-4.82-18.93,3.2-21.4,11-2,6.37-.51,13.56,3.16,19.15A40.89,40.89,0,0,0,194.43,207.72Z"/><path class="cls-1" d="M134.25,187.25c2.17,3.72,4.62,5.81,7.95,8.42,4.52,3.55,10.12,6.81,15.69,5.47,10.17-2.45,11.59-16.57,9.89-25.06-2.48-12.38-17.69-30-31.15-19.64-5.33,4.13-7.58,11.41-6.85,18.11A32.47,32.47,0,0,0,134.25,187.25Z"/><path class="cls-1" d="M122.71,187.87c-9.38-6.88-27.36-11.34-31.66,3.67-2,7.14.71,15.09,5.85,20.44s12.35,8.34,19.65,9.66a24.52,24.52,0,0,0,10.65,0c3.46-.93,6.7-3.22,8.06-6.53,1.26-3.09.78-6.62-.19-9.81A34.14,34.14,0,0,0,122.71,187.87Z"/><path class="cls-1" d="M122.48,235.44c-8.51-5.14-25.66-8.57-28.4,4.84A19.55,19.55,0,0,0,95,250a38.43,38.43,0,0,0,10.23,16.4c3.75,3.55,8.52,6.42,13.68,6.48a16,16,0,0,0,13.78-8.42,19.78,19.78,0,0,0,.76-16.42A26.11,26.11,0,0,0,122.48,235.44Z"/></g></g></svg>